<svg width="400px" height="60px" xmlns="http://www.w3.org/2000/svg" viewBox="52.787512207031256 50.59496002197266 400 55.81007995605468" style="background: rgba(0, 0, 0, 0);" preserveAspectRatio="xMidYMid"><filter id="editing-goldstamp"><feFlood flood-color="#797549" result="flood"></feFlood><feMorphology operator="dilate" radius="2" in="SourceGraphic" result="outline"></feMorphology><feComposite operator="in" in="flood" in2="outline" result="outline2"></feComposite><feGaussianBlur stdDeviation="4" in="SourceAlpha" result="blur"></feGaussianBlur><feSpecularLighting surfaceScale="2" specularConstant="0.7" specularExponent="10" lighting-color="#white" in="blur" result="specular"><fePointLight x="200" y="-1000" z="300"></fePointLight></feSpecularLighting><feComposite operator="in" in="specular" in2="SourceGraphic" result="specular2"></feComposite><feComposite in="SourceGraphic" in2="specular2" operator="arithmetic" k1="3" k2="2" k3="1" k4="0" result="specular3"></feComposite><feMerge><feMergeNode in="outline2"></feMergeNode><feMergeNode in="specular3"></feMergeNode></feMerge></filter><g filter="url(#editing-goldstamp)"><g transform="translate(113.10499882698059, 98.68000030517578)"><path d="M2.30-9.47L2.30-9.47L2.30-9.47Q2.30-11.97 2.94-15.17L2.94-15.17L8.13-42.24L22.27-42.24L17.15-14.98L17.15-14.98Q16.58-11.97 16.58-9.76L16.58-9.76L16.58-9.76Q16.58-7.55 17.50-6.40L17.50-6.40L17.50-6.40Q18.43-5.25 20.16-5.25L20.16-5.25L20.16-5.25Q21.89-5.25 22.98-5.70L22.98-5.70L22.98-5.70Q24.06-6.14 24.96-7.23L24.96-7.23L24.96-7.23Q26.69-9.41 27.78-14.98L27.78-14.98L32.96-42.24L42.62-42.24L37.50-15.04L37.50-15.04Q35.71-5.95 30.78-2.30L30.78-2.30L30.78-2.30Q25.98 1.28 16.51 1.28L16.51 1.28L16.51 1.28Q9.41 1.28 5.63-1.79L5.63-1.79L5.63-1.79Q2.30-4.48 2.30-9.47ZM63.04-22.46L63.04-22.46L63.04-22.46Q63.94-24.83 63.94-26.88L63.94-26.88L63.94-26.88Q63.94-30.66 60.86-30.66L60.86-30.66L60.86-30.66Q59.26-30.66 57.95-29.22L57.95-29.22L57.95-29.22Q56.64-27.78 56.64-25.98L56.64-25.98L56.64-25.98Q56.64-24.70 57.66-23.68L57.66-23.68L57.66-23.68Q59.14-22.27 62.91-19.97L62.91-19.97L62.91-19.97Q66.69-17.66 68.13-15.78L68.13-15.78L68.13-15.78Q69.57-13.89 69.57-11.30L69.57-11.30L69.57-11.30Q69.57-8.70 68.32-6.34L68.32-6.34L68.32-6.34Q67.07-3.97 64.83-2.30L64.83-2.30L64.83-2.30Q60.03 1.28 52.35 1.28L52.35 1.28L52.35 1.28Q48.19 1.28 44.99-0.90L44.99-0.90L44.99-0.90Q41.79-3.01 41.79-5.50L41.79-5.50L41.79-5.50Q41.79-8 43.62-9.47L43.62-9.47L43.62-9.47Q45.44-10.94 48.13-10.94L48.13-10.94L48.13-10.94Q50.82-10.94 52.48-9.92L52.48-9.92L52.48-9.92Q51.65-7.81 51.65-6.40L51.65-6.40L51.65-6.40Q51.65-2.18 55.23-2.18L55.23-2.18L55.23-2.18Q56.77-2.18 57.79-3.14L57.79-3.14L57.79-3.14Q58.82-4.10 58.82-5.76L58.82-5.76L58.82-5.76Q58.82-9.02 53.31-12.48L53.31-12.48L53.31-12.48Q48.83-15.42 47.81-16.58L47.81-16.58L47.81-16.58Q46.08-18.62 46.08-21.18L46.08-21.18L46.08-21.18Q46.08-23.74 47.30-26.18L47.30-26.18L47.30-26.18Q48.51-28.61 50.75-30.34L50.75-30.34L50.75-30.34Q55.42-33.92 63.55-33.92L63.55-33.92L63.55-33.92Q67.71-33.92 70.18-32.26L70.18-32.26L70.18-32.26Q72.64-30.59 72.64-27.78L72.64-27.78L72.64-27.78Q72.64-24.96 70.94-23.36L70.94-23.36L70.94-23.36Q69.25-21.76 66.18-21.76L66.18-21.76L66.18-21.76Q64.06-21.76 63.04-22.46ZM100.93-10.82L100.93-10.82L100.93-10.82Q102.53-9.73 102.53-7.33L102.53-7.33L102.53-7.33Q102.53-4.93 101.31-3.39L101.31-3.39L101.31-3.39Q100.10-1.86 98.11-0.83L98.11-0.83L98.11-0.83Q94.02 1.28 89.60 1.28L89.60 1.28L89.60 1.28Q85.18 1.28 82.59 0.32L82.59 0.32L82.59 0.32Q80-0.64 78.27-2.43L78.27-2.43L78.27-2.43Q74.88-5.82 74.88-12.03L74.88-12.03L74.88-12.03Q74.88-21.70 80.13-27.58L80.13-27.58L80.13-27.58Q85.76-33.92 95.55-33.92L95.55-33.92L95.55-33.92Q101.63-33.92 104.64-31.36L104.64-31.36L104.64-31.36Q106.88-29.44 106.88-26.30L106.88-26.30L106.88-26.30Q106.88-15.04 87.42-15.04L87.42-15.04L87.42-15.04Q87.17-13.38 87.17-11.97L87.17-11.97L87.17-11.97Q87.17-9.02 88.48-7.90L88.48-7.90L88.48-7.90Q89.79-6.78 92.22-6.78L92.22-6.78L92.22-6.78Q94.66-6.78 97.25-7.90L97.25-7.90L97.25-7.90Q99.84-9.02 100.93-10.82ZM87.87-17.79L87.87-17.79L87.87-17.79Q92.42-17.79 95.04-20.61L95.04-20.61L95.04-20.61Q97.66-23.30 97.66-27.58L97.66-27.58L97.66-27.58Q97.66-29.06 97.12-29.86L97.12-29.86L97.12-29.86Q96.58-30.66 95.49-30.66L95.49-30.66L95.49-30.66Q94.40-30.66 93.47-30.24L93.47-30.24L93.47-30.24Q92.54-29.82 91.58-28.42L91.58-28.42L91.58-28.42Q89.22-25.22 87.87-17.79ZM107.14-3.78L107.14-3.78L107.14-3.78Q107.14-6.21 109.02-7.55L109.02-7.55L109.02-7.55Q110.91-8.90 113.60-8.90L113.60-8.90L113.60-8.90Q116.29-8.90 117.92-7.55L117.92-7.55L117.92-7.55Q119.55-6.21 119.55-3.78L119.55-3.78L119.55-3.78Q119.55-1.34 117.73-0.03L117.73-0.03L117.73-0.03Q115.90 1.28 113.22 1.28L113.22 1.28L113.22 1.28Q110.53 1.28 108.83-0.03L108.83-0.03L108.83-0.03Q107.14-1.34 107.14-3.78ZM157.89-13.25L157.89-13.25L157.89-13.25Q159.55-12.03 159.55-9.44L159.55-9.44L159.55-9.44Q159.55-6.85 158.43-5.02L158.43-5.02L158.43-5.02Q157.31-3.20 155.14-1.79L155.14-1.79L155.14-1.79Q150.46 1.22 142.30 1.22L142.30 1.22L142.30 1.22Q134.14 1.22 129.70-3.04L129.70-3.04L129.70-3.04Q125.25-7.30 125.25-14.85L125.25-14.85L125.25-14.85Q125.25-25.54 130.82-33.66L130.82-33.66L130.82-33.66Q135.04-39.68 142.59-42.24L142.59-42.24L142.59-42.24Q146.50-43.52 150.34-43.52L150.34-43.52L150.34-43.52Q154.18-43.52 156.54-43.01L156.54-43.01L156.54-43.01Q158.91-42.50 160.70-41.47L160.70-41.47L160.70-41.47Q164.61-39.23 164.61-35.65L164.61-35.65L164.61-35.65Q164.61-32.38 161.54-29.95L161.54-29.95L161.54-29.95Q158.72-27.78 156.42-27.78L156.42-27.78L156.42-27.78Q154.11-27.78 153.15-28.10L153.15-28.10L153.15-28.10Q153.41-30.40 153.41-31.90L153.41-31.90L153.41-31.90Q153.41-33.41 153.34-34.50L153.34-34.50L153.34-34.50Q153.28-35.58 152.96-36.61L152.96-36.61L152.96-36.61Q152.32-38.98 150.37-38.98L150.37-38.98L150.37-38.98Q148.42-38.98 146.46-37.15L146.46-37.15L146.46-37.15Q144.51-35.33 142.85-32.26L142.85-32.26L142.85-32.26Q139.07-25.28 139.07-17.02L139.07-17.02L139.07-17.02Q139.07-13.06 141.31-10.78L141.31-10.78L141.31-10.78Q143.55-8.51 148.35-8.51L148.35-8.51L148.35-8.51Q151.94-8.51 155.33-10.88L155.33-10.88L155.33-10.88Q156.80-11.90 157.89-13.25ZM167.65-1.92L167.65-1.92L167.65-1.92Q166.14-3.58 165.47-6.21L165.47-6.21L165.47-6.21Q164.80-8.83 164.80-13.12L164.80-13.12L164.80-13.12Q164.80-17.41 166.27-21.31L166.27-21.31L166.27-21.31Q167.74-25.22 170.43-28.03L170.43-28.03L170.43-28.03Q175.94-33.92 185.02-33.92L185.02-33.92L185.02-33.92Q188.29-33.92 190.66-32.83L190.66-32.83L201.60-33.92L196.86-8.96L196.86-8.96Q196.67-8.19 196.67-6.78L196.67-6.78L196.67-6.78Q196.67-5.38 197.54-4.48L197.54-4.48L197.54-4.48Q198.40-3.58 199.68-3.46L199.68-3.46L199.68-3.46Q199.04-1.28 196.70 0L196.70 0L196.70 0Q194.37 1.28 191.74 1.28L191.74 1.28L191.74 1.28Q189.12 1.28 187.36 0.29L187.36 0.29L187.36 0.29Q185.60-0.70 185.09-2.37L185.09-2.37L185.09-2.37Q184.06-0.77 181.89 0.26L181.89 0.26L181.89 0.26Q179.71 1.28 176.80 1.28L176.80 1.28L176.80 1.28Q173.89 1.28 171.52 0.51L171.52 0.51L171.52 0.51Q169.15-0.26 167.65-1.92ZM181.15-27.90L181.15-27.90L181.15-27.90Q180.42-26.75 179.78-24.80L179.78-24.80L179.78-24.80Q179.14-22.85 178.08-17.63L178.08-17.63L178.08-17.63Q177.02-12.42 177.02-8.70L177.02-8.70L177.02-8.70Q177.02-4.99 177.60-3.90L177.60-3.90L177.60-3.90Q178.18-2.82 179.20-2.82L179.20-2.82L179.20-2.82Q181.25-2.82 182.75-4.77L182.75-4.77L182.75-4.77Q184.26-6.72 184.83-10.18L184.83-10.18L188.22-28.93L188.22-28.93Q186.88-30.08 185.31-30.08L185.31-30.08L185.31-30.08Q183.74-30.08 182.82-29.57L182.82-29.57L182.82-29.57Q181.89-29.06 181.15-27.90ZM224.19-22.46L224.19-22.46L224.19-22.46Q225.09-24.83 225.09-26.88L225.09-26.88L225.09-26.88Q225.09-30.66 222.02-30.66L222.02-30.66L222.02-30.66Q220.42-30.66 219.10-29.22L219.10-29.22L219.10-29.22Q217.79-27.78 217.79-25.98L217.79-25.98L217.79-25.98Q217.79-24.70 218.82-23.68L218.82-23.68L218.82-23.68Q220.29-22.27 224.06-19.97L224.06-19.97L224.06-19.97Q227.84-17.66 229.28-15.78L229.28-15.78L229.28-15.78Q230.72-13.89 230.72-11.30L230.72-11.30L230.72-11.30Q230.72-8.70 229.47-6.34L229.47-6.34L229.47-6.34Q228.22-3.97 225.98-2.30L225.98-2.30L225.98-2.30Q221.18 1.28 213.50 1.28L213.50 1.28L213.50 1.28Q209.34 1.28 206.14-0.90L206.14-0.90L206.14-0.90Q202.94-3.01 202.94-5.50L202.94-5.50L202.94-5.50Q202.94-8 204.77-9.47L204.77-9.47L204.77-9.47Q206.59-10.94 209.28-10.94L209.28-10.94L209.28-10.94Q211.97-10.94 213.63-9.92L213.63-9.92L213.63-9.92Q212.80-7.81 212.80-6.40L212.80-6.40L212.80-6.40Q212.80-2.18 216.38-2.18L216.38-2.18L216.38-2.18Q217.92-2.18 218.94-3.14L218.94-3.14L218.94-3.14Q219.97-4.10 219.97-5.76L219.97-5.76L219.97-5.76Q219.97-9.02 214.46-12.48L214.46-12.48L214.46-12.48Q209.98-15.42 208.96-16.58L208.96-16.58L208.96-16.58Q207.23-18.62 207.23-21.18L207.23-21.18L207.23-21.18Q207.23-23.74 208.45-26.18L208.45-26.18L208.45-26.18Q209.66-28.61 211.90-30.34L211.90-30.34L211.90-30.34Q216.58-33.92 224.70-33.92L224.70-33.92L224.70-33.92Q228.86-33.92 231.33-32.26L231.33-32.26L231.33-32.26Q233.79-30.59 233.79-27.78L233.79-27.78L233.79-27.78Q233.79-24.96 232.10-23.36L232.10-23.36L232.10-23.36Q230.40-21.76 227.33-21.76L227.33-21.76L227.33-21.76Q225.22-21.76 224.19-22.46ZM268.35-7.10L268.35-7.10L268.35-7.10Q268.35-4.29 271.23-3.46L271.23-3.46L271.23-3.46Q270.53-1.09 267.78 0.19L267.78 0.19L267.78 0.19Q265.47 1.28 262.94 1.28L262.94 1.28L262.94 1.28Q260.42 1.28 259.10 0.61L259.10 0.61L259.10 0.61Q257.79-0.06 257.09-1.15L257.09-1.15L257.09-1.15Q255.94-2.82 255.94-5.95L255.94-5.95L255.94-5.95Q255.94-7.81 256.96-12.93L256.96-12.93L257.86-17.79L257.86-17.79Q258.94-23.36 258.94-25.41L258.94-25.41L258.94-25.41Q258.94-28.99 256.96-28.99L256.96-28.99L256.96-28.99Q254.46-28.99 252.86-25.34L252.86-25.34L252.86-25.34Q252.22-23.94 251.78-21.82L251.78-21.82L247.42 0L234.56 1.28L243.58-44.80L256.45-46.08L255.94-43.52L255.94-43.52Q254.14-33.66 252.61-30.34L252.61-30.34L252.61-30.34Q256.19-33.92 262.78-33.92L262.78-33.92L262.78-33.92Q269.76-33.92 271.04-29.31L271.04-29.31L271.04-29.31Q271.49-27.84 271.49-26.56L271.49-26.56L271.49-26.56Q271.49-25.28 271.39-24.29L271.39-24.29L271.39-24.29Q271.30-23.30 270.98-21.50L270.98-21.50L270.14-16.90L268.67-9.66L268.67-9.66Q268.35-8.19 268.35-7.10Z" fill="#999569"></path></g></g><style>text {
  font-size: 64px;
  font-family: Arial Black;
  dominant-baseline: central;
  text-anchor: middle;
}</style></svg>
